<svg xmlns="http://www.w3.org/2000/svg" viewBox="0 0 512 512"><path d="M382.9 203c1.9-14.9 5.9-34.6 12.9-40.6 11.1-9.5 42-11.4 37.7-25.4s-11-23.5-25.1-18c-12.6 4.9-56.8 22.4-60.5 76.6l35 7.4z" fill="#5f1e5c"/><path d="M422.2 343c0 61.8-84.5 41.4-160 38.6-1.3-.1-2.6-.1-3.8-.1l-11.3-.2h-5c-4.7.1-9.5.2-14.2.5-1.4.1-2.8.1-4.1.2l-16.5 1.1c-1.1.1-2.1.2-3.2.2l-17.7 1.4-4 .3c-6.9.6-13.7 1.1-20.2 1.4-1.3.1-2.7.1-4 .2-7 .3-13.7.4-20 .2l-5.4-.3c-17.7-1.3-31.6-5.8-39.6-16.7-.7-.9-1.3-1.9-1.9-3a40.92 40.92 0 0 1-4-10.5c-.1-.7-.3-1.3-.4-2-.6-3.4-1-7.1-1-11.2v-2.2c.1-2.9.3-5.9.7-9.1.1-.6.1-1.1.2-1.7.4-2.6.8-5.4 1.4-8.2.2-.9.4-1.8.5-2.7l1.6-6.6c.2-.6.3-1.3.5-1.9l1.9-6.7.6-2c22-69 89.2-159.9 153.9-159.9 78.8.1 175 134.9 175 200.9z" fill="#d6afbc"/><path d="M416.4 265.5c2.7-81.6-73.1-70.3-129.7-70-38.9-.3-65.4 35.1-61 72.4h.1c1.3 30.1 26.1 54.1 56.6 54.1 46.9-1.8 130.1 15.7 134-54.1h.1v-2.4z" fill="#ac4343"/><path d="M418.9 51.4c-11.5-3.3-26-3.5-24.6 14.7.3 2.4.3 4.6 7.1 11.1 9.4 9.4 21.8 3.3 25.7-3.9 1.4 0 2.5-15.3 1.7-15.7-.4-1.2-9-5.7-9.9-6.2zm-62.1-11.8c-5.5-1.9-12.7-1-11.7 7.1 1.3 7.2 11.5 11.1 15.6 3.5.7 0 1.2-7.5.8-7.6-.2-.6-4.3-2.8-4.7-3zm-71.6 81.6c-5.5-1.9-12.7-1.1-11.7 7.1 1.3 7.2 11.5 11.1 15.6 3.5.6 0 1.2-7.5.8-7.6-.2-.6-4.3-2.8-4.7-3zm67.5-35.8c-10.3-3.1-23-2.8-21.7 13.2.3 2.1.3 4.1 6.3 10 8.3 8.5 19.3 2.9 22.6-3.5 1.2 0 2.2-13.7 1.5-14.1-.3-1.2-8-5.2-8.7-5.6zm87.6 88.2c29.6-6.5 36.2 32.5 7.4 39.9-32 7.4-33-38.6-7.4-39.9z" fill="#b6d2da"/><path d="M227.8 381.8l-4.1.2c-.8-.4-1.5-.9-2.3-1.3-19.1-9.2-38.6-17.1-58-26.1-12.6-5.4-25.2-10-37.5-16.1-13.1-4.6-25.7-10.2-37.9-16.6.2-.9.4-1.8.5-2.7 41 20.1 83.9 36 125.2 55.6 4.9 2.1 9.6 4.5 14.1 7zm34.4-.2c-1.3-.1-2.6-.1-3.8-.1-7.1-4.2-14-8.6-20.9-13.2-42.6-19.8-85.3-37.9-128.6-55.9-5.6-2.6-11-5.4-16.4-8.2l.6-2c4.3 2.3 8.6 4.5 13.1 6.5 43.6 19 87.9 36.7 130.5 57.9l25.5 15zM138 386.9l-5.4-.3L93 369.9c-.7-.9-1.3-1.9-1.9-3l46.9 20zm69.2-3.8l-3.2.2-117.5-51.5.2-1.7c27.9 13.7 57.8 23.8 85.5 37.7 11.9 4.2 23.5 9.9 35 15.3zm28.1-7.4c-6.5.3-12.9-5.7-19.2-8-22.9-9-45-21.4-68.1-29.1-19.1-9.3-39-16.4-57.9-26 .2-.6.3-1.3.5-1.9l2.4 1.2c10.4 4.9 20.9 10.1 31.9 14.1 13.1 4.8 25.3 12.2 38.6 16.2 23.3 11.9 48.6 20.8 71.8 33.5zm-67.9 2.5c-27-12.1-55.1-22.1-81.7-35.1v-2.2c21.7 10.4 43.9 19.6 66 28.9 3.9 2 15.2 4.3 15.7 8.4zm-5.3 8.3l-4 .2c-5.3-2.4-10.6-5-16-7.2-8.7-3.3-17.9-6.4-25.5-11.6-5.5-.4-10.8-4.2-16.2-5.7-1.4-.5-2.9-.9-3.5-2.6 1-.7 1.8-.2 2.6.1 6.1 2.8 12.3 5.5 18.5 7.9l44.1 18.9zm82.8-5.2h-2.8l-6.8-5.2c3.7.8 6.6 3 9.6 5.2zm-58.6 3.5l-4 .3c-4.3-1.8-8.6-3.8-12.8-5.9-.7-.3-1.2-.8-1.1-1.9 6 2.3 12 4.8 17.9 7.5zm-90-26.1l-.6 1.4-8.6-3.7c-.1-.7-.3-1.3-.4-2 3.2 1.5 6.4 2.9 9.6 4.3z" fill="#54314c"/><path d="M394.4 277.2c-.8.9-.5 1.6.4 2.1-1 1-.5 2-1.1 3.1-1.9-2.9-.9 1-3.6 1.2-2 1.7-5.5 5.3-8.1 3.8-.6-.6-1.1-.4-1.7 0-2.9.8-6.4 1.6-9.3 1.4.6-2.4-.7-.8-2.4-.8-1.5-2.1-4.6.4-6.4-2.4-.2-.7-1.3-4.9-2.5-2.7-.7-.4-.2-2.2-1.7-1.8-1.4-.8-.9-5.2-2.5-3.4.5-2.9-2.9-.6-.7-4.1-2 .4-1.3-1.7-2.4-2.2-.1-.5.8-.6.5-1.3-4.5.5-.7-3.1-2-5.3-1.4-2.4.4-5-.5-7.4.4-.6 1.1-1.1.6-2-2.5 1.5-.7-1.4-1.5-3.1-1.3-5.3.6-9.4 1.6-14.5-.6-2.2 4-3.8 2.5-5.7.5-1.3 2.6-1 2.6-2.9 1.6-.2 3.3-.3 3.4-2.5 1.4 0 1.3-2 2.7-2.1.9-.1 1.2-1.2 1.9-1.7.9 3.1 2.3-.6 4.4-.1 1.5.3 2.1-2 3.6-.9.5.4 0 1.2.6 1.6.5.1.5-.5.9-.8 1.6 1.6 3.7.4 5.5.9.3 1.4.9 1.6 2.4 1.5 1.1.8 1.8 2.2 3.1 2.6 1.7 3.4-2.3 5.5-1.7 9-.3.8-1.2.4-1.4 1.1 2 3.6.4 7.7.9 11.6.4 2.2-1.5 3.2-.1 5 .8 1.1 1.5 1.4.3 2.3.3.7 1.1.6 1.5.9.1 3.8 2.7 6.5 3 9.9.4.6.9.2 1.4.7-.5 3.7 4.5 3.5 5.8 9zm-100.4 4c-1.4 2.4-.4.7.8 2.2-1.8.3-3.4 1.8-1.8 3.3-.7 1.1-1.2 1.6-2.1.5-.4 1.5-1.9.5-2.8 1.1 3.4 2.5-1.4 2.2-3 4.1-1.7-1.3-1.9-1.3-4.8 1-2.7-2-3.6 1.7-6.8 1.7-.6-.9.6-.5.5-1.4-1.6-.6-3.3 1.7-3.4-1.8-1 .2-1.3 1-2.1 1.7-.9-4.4-2.7-.2-4.3-2.8-1.3 2.1-2.5-1.6-4.7-.9-.3-.8.7-.7.6-1.3-1.3-1.1-1.9 1.2-3.1.6-.5-.3-.1-1.1-.5-1.5-.8-.5-.6.9-1.5.5-.4-2.2.5-5.1-2.8-6.1.1-2.1.4-5.6-2.2-3.2-.9-1.1.3-1.8.5-2.8-.9-.8-.5-2.8-2.6-2.5.3-1.2 2-1.5 1.4-3.2-5.3 2.7-.2-3.3-.7-4.9-3.8-.7 2.5-4.4-.9-6.8.5-.6 1-1.1 1.6-1.7-1.3-.9 1-2.4-.6-3.5-1.4-1.3 1.4-2.6 1.6-3.9.1-.9-1.8-1.6-.7-2.4 1.5-1.1 1.3-3.4 3.3-4-2.3-1.5.3-2.5 0-4.7.4-.5 1.8.1 1.5-1.3-.1-1.1 1.4-.4 1.8-1.3.6-.9 2-2.1 2.7-2.1 1.7.1 2.2-.9 2.6-2.5 2.4-.1 4.7-.7 6.1-2.7 2.5-.8 4.4 2.3 6.2-1 1.5 1.1 4.6 5 5.2 1.7 3.3.1 1.3 6.1 4.4 3.4 4.7 2.8-.3 7.9-1.8 12.2-1.2 2.1 1 4.9-1.7 5.6.8.6 1.1 1.4.5 2.1-.6.8.8 1.8-.4 2.4 2 1.3-.8 2.7-.6 4.4 2.5 1.9 4 7.5 4.3 11.1 1.3.5 1.7 1.1 1.7 2.7 2.9 1.9 1 3.6 5.1 3.1-.5 2.9 2.6 1.8 2.7 4.4-.1.4.5.4.8.5z" fill="#fff"/><path d="M294 281.2c-.4-.1-.9 0-.9-.6-.2-2.5-3.3-1.5-2.7-4.4-4.2.5-2.2-1.2-5.1-3.1.1-1.7-.4-2.2-1.7-2.7-.4-3.5-1.8-9.1-4.3-11.1-.1-1.6 2.6-3 .6-4.3 1.2-.6-.2-1.6.4-2.4.6-.7.3-1.5-.5-2.1 2.7-.7.4-3.5 1.7-5.6 2.2-4.7 4.8-13.5 8.6-4.9 4.7.7.5 1.7 4.4 3.4-1 2.6 2.6 5.2 1 7.2-.7.5-.5 1.5 0 1.6 2.1 1.7 2.7 4.6 3.4 7.2-1 2.4 1.9 4.1.5 6.2-1.6 3.1 1.1 7-1.4 10.2-.2 2.3-1.2 7.6-4 5.4zm100.4-4c-1.2-5.4-6.4-5.5-6-8.8-.5-.5-1-.1-1.4-.7-.3-3.4-2.9-6.1-3-9.9-.7-.3-2.3-.7-.7-1.6-.3-1.3-2.8-2.8-1-4.5-.1-4.4 1.2-9.7-.7-13.8.2-.7 1.1-.3 1.4-1.1-.6-3.4 3.4-5.5 1.7-9 2.8-.4 4.6 1.9 4.4 4.4 3.3.9 1.5 2.9 4.1 3.5-.9 2 .5 2.8 1.9 3.6.2.8-1.2 1-.4 2.1.9.2 2.4.3 1.9 2.3 1.6 1.6 2.1 4.1 3.2 6.1-.7 3.4 1.5 7.8-.7 11.5.9 4.5.7 13.2-4.7 15.9z" fill="#090101"/></svg>
