<svg xmlns="http://www.w3.org/2000/svg" viewBox="0 0 512 512"><path d="M395.7 362.9c0 90-82.8 52.2-150.6 52.2-67.9 0-138.8 37.8-138.8-52.2 0-52.5 24.1-136.7 57.6-197.9 5.8-10.6 11.9-20.5 18.2-29.4.4-.6.8-1.2 1.3-1.8 2.4-3.4 4.9-6.6 7.4-9.7.4-.5.8-.9 1.1-1.4l6-7c.5-.6 1.1-1.2 1.6-1.7a108.61 108.61 0 0 1 4.8-4.8c.7-.6 1.3-1.3 2-1.9 2.6-2.4 5.2-4.5 7.9-6.5.8-.6 1.6-1.1 2.4-1.7 4.7-3.2 9.5-5.8 14.2-7.5.8-.3 1.5-.5 2.3-.8 4-1.2 8-1.8 12-1.8 12.7 0 26 6.5 39.1 17.6 1 .8 2 1.7 2.9 2.6 5.6 5 11.1 10.8 16.6 17.3.8.9 1.5 1.8 2.3 2.8 3.2 3.9 6.3 8 9.4 12.2.7.9 1.3 1.8 2 2.7l5.1 7.6c.7 1 1.4 2.1 2.1 3.2l7.2 11.6c.2.3.4.7.6 1.1 2.9 4.9 5.7 9.9 8.5 15l1.7 3.2c3 5.7 6 11.6 8.8 17.5 26.2 54.7 44.3 117.3 44.3 159.5z" fill="#c3d2ac"/><path d="M357.4 282.6l-55.1-66.7-20.7 84-20.7-84-55.1 66.7 17.8-84.7-78.6 36.2 52.7-68.6-33.6-.6c5.8-10.6 11.9-20.5 18.2-29.4.4-.6.8-1.2 1.3-1.8 2.4-3.4 4.9-6.6 7.4-9.7.4-.5.8-.9 1.1-1.4l6-7c.5-.6 1.1-1.2 1.6-1.7a108.61 108.61 0 0 1 4.8-4.8c.7-.6 1.3-1.3 2-1.9 2.6-2.4 5.2-4.5 7.9-6.5.8-.6 1.6-1.1 2.4-1.7 4.7-3.2 9.5-5.8 14.2-7.5.8-.3 1.5-.5 2.3-.8 4-1.2 8-1.8 12-1.8 12.7 0 26 6.5 39.1 17.6 1 .8 2 1.7 2.9 2.6 5.6 5 11.1 10.8 16.6 17.3.8.9 1.5 1.8 2.3 2.8 3.2 3.9 6.3 8 9.4 12.2.7.9 1.3 1.8 2 2.7l5.1 7.6c.7 1 1.4 2.1 2.1 3.2l7.2 11.6c.2.3.4.7.6 1.1 2.9 4.9 5.7 9.9 8.5 15l1.7 3.2c3 5.7 6 11.6 8.8 17.5l-11.8-5.4 17.6 84.7z" fill="#5ba26f"/><path d="M343.5 393.5c.9-1.7 1.5-1.9 3.6-1.1.6-.3.2-.9.6-1.3h2.2c.2.4.3.8.5 1.3.8-.9 1.9-.7 2.8-1.3.8.4 2.2 1 2.1-.8 1.5-.9 3.4.2 5-.4.7-.5 0-1.7 1.1-2 .5-.2.2-.9.1-1.4-1.5-.3-.1-2-2.2-2-1.2-2.2-2.2-5.2-3.8-6.9-.8-.1-1.1-.9-1.7-1.3.4-.7 1.2 0 1.5-.7-.6-2.1-2.8-1.9-4.2-2.9.8-2.9-.4-5.3-1.8-7.6.5-.8 1.9-1.6.2-2.6-2.4-4.2 1.4-4.5-.8-7.2.7-.8.5-2.1 1.4-2.5 0-.6-.4-.7-.7-.9 0-.5.7-.3.7-.8.1-.6-.6-.5-.8-1 1-.3.7-1.4 1.2-2 .7-1.6 3.4-4.5 1.6-5.9.1-4.9 7.3-6.1 5.9-11.6-1.2-1.5-2.3-1.1-3.7-.4-1.4-1.3-3.2-1.9-4.3-3.1-4.1.2-8.1-1.1-11.7.4-.8-.5-.3-1.2-.9-1.5-.6.1-.4.6-.6 1.3-3.4-.2-6.6 1.5-10.1 1.1-1.4.9-2.6 2-4.3 2.1-.4.2-.3.8-.6 1.3-1.9-.3-2.3 2.2-4.1 2.2l-.3 1.2c-.9.3-1.7 1-2.6.2-1.2 1.5-.6 3.2-1 4.7-2.4.3-2.7 2.9-4.2 3.7.2 3.1-2.4 5.1-1.2 8.3-1.1 2.9-1.1 3.6-.3 5.1-.2 3.8.5 7.1.8 10.2 2.6 1.1 1.3 4.6 1.6 7 1.4 1.1 2.2 2.4 2.7 4 .4.2 1.1-.2 1.3.6-.2.6-.8.3-1.3.7.2.6.7 1 1.2 1.4.3-.2.5-.3.8-.5.5.7 1 1.5 1.5 2.3.4.1.8.2 1.4.3.3.8.1 1.9 1 2.3 1.8 1.1 3.2 2.9 5.5 3 .9 0 1.3.9 2 1.4h1.7c.3.4.6.7.9 1h6.1c.5.4 1 .9 1.6 1.4 0 .3 6.6 1.2 6.6 1.2zm-105.8-.6c.8-1.9 2.2.8 2.8-.2.8-.4.4-1.2 1-1.5 1.4 1.1 2.9.3 4.3-.2.9.5 2.1.3 2.7 1.5.7-.8 1.9-.4 2.6-1.3 1.4 1.1 2.2.8 2.5-1 1.5-.4 1.6-.4 2.7.5.6-.7 1.4-.8 2.3-.8-.1-.9.6-1.5.7-2.3-.4-.3-1-.1-1.7-.3-.4-1.2-1.4-2.1-2.5-2.7 0-.5-.1-.9-.1-1.3-2.4-1.4-3.2-4.5-6-5.7v-3.7c-.7-.8-1.2-1.6-2.6-1.7 1.6-2.2 0-3.9-.9-5.8.3-1.9-.8-4.2.7-5.8.4-.3.2-1.1-.4-1.6-.5.1-.3 1.2-1.1.9-.4-.6-.1-1.4-.2-1.9 1.6-1.4 2.6-3.3.9-5 .3-.9 1-1.4 1.6-2.1v-2.6c1.1-.6 1.1-1.6 1-2.8 1.6-1 2.2-2.7 2.8-4.6 2.8.3 2.1-3.2 4.1-3.9-.1-1.8.7-3.4 2.6-3.5 0-.7.1-1.1.1-1.6-.7 0-1.3-.1-1.9-.1-.5-.5-.2-.8.1-1.2-1.9-2.5-1.9-.7-3.7-.7-1.2-1-2.8-1.5-3.8-2.6-2.4-.5-9.9-2.1-11.4.3-1.2.1-1.3-.9-1.8-1.3-.4.6-.8 1.1-1.5 1.1-3.2-.2-5.8 1.4-9.1.9-1.2 1.8-3.8 1.4-4.9 3.5-.4.1-.9.2-1.3.2-1.2 1.5-1.2 1.5-2.7 2-1.5 4.4-3.9-2.1-3.8 5.9-2.3.7-2.8 3.1-4.4 4.2-.4 1.6 1.3 2.3-.6 3.1.2 2.3-2.3 2.7 0 4.8-1.2 1.5-1.7 4-.3 5.7-.9.7-.7 1.7-.7 2.7.3.3.6.5.8.7-.1 2.6-.5 5.1 1.7 7.2-.5 1.5.7 2.9.2 4.6-.6 1.7 2.9 3.1 2.4 4.9.5.8 1.4.1 1.8.8 0 .7-.9.4-1 1 .2 1.8.6 1 1.7.7 1 1.2.9 2.6 2.8 2.6-.1 1.9.9 2.9 2.6 3 .1.4.1.7.1.9 1.9 1 4.3.9 5.6 2.8.6.1 1.1.1 1.5-.4.4.5.7 1 1 1.4 3.3.2 4.2.1 5.4-.6 2.3 1.9 2.3 1.9 2.8 3.2.3.3 1.8.8 2.5-.3z" fill="#fff"/><path d="M257.7 332.1c1-.1 1.2 1.7 2.4.9.7.8.1 1.6.5 2.3.6 1.1 2.1 1.3 2.4 2.5 5.7.7 4.2 8 7 11.2v2.7c.5.7 1.2 1.2 1 2.1.4.5 1.1.1 1.5.8-1.3 2.1.3 5-1.5 6.9-.2 1.2.8 1.5.9 2.3.3.8-1 .8-.9 1.8.4.9 1.4 1.9 1 3.1 3.6 2.6-4.7 3.7-1.1 6.7 0 .6-.4.6-.8.9.6 3.8-4.4 5.2-4.6 8.6-1.6.6-3.6.6-3.5 2.4-.7.3-.7-.7-1.4-.5-.1 1-.1 2-.2 3-.6.4-1.2.3-1.7.3-.1-.9.6-1.5.7-2.3-.4-.3-1-.1-1.7-.3-.4-1.2-1.4-2.1-2.5-2.7 0-.5-.1-.9-.1-1.3-2.4-1.4-3.2-4.5-6-5.7v-3.7c-.7-.8-1.2-1.6-2.6-1.7 1.6-2.2 0-3.9-.9-5.8.3-1.9-.8-4.2.7-5.8.4-.3.2-1.1-.4-1.6-.5.1-.3 1.2-1.1.9-.4-.6-.1-1.4-.2-1.9 1.6-1.4 2.6-3.3.9-5 .3-.9 1-1.4 1.6-2.1v-2.6c1.1-.6 1.1-1.6 1-2.8 1.6-1 2.2-2.7 2.8-4.6 2.8.3 2.1-3.2 4.1-3.9-.1-1.8.7-3.4 2.6-3.5 0-.7.1-1.1.1-1.6zm100.3 0l2.1-.1c.3.9 1.1 1.2 2.2 1.1.2 1.2-.2 2.8 1 3.2 1.3.7 1.8 2.1 3.4 1.9 4.1 2.7 2.2 7.6 5.3 10.9v2.7c.6.6 1.1 1.2 1.1 2 .4.5 1.1 0 1.4.7.1.7-.9 1-.8 1.5.1.6.8.6.8.8.1.8-.6.7-.8 1.4-.2.9.2 2.1-.5 3.3-.5.7.4 1.5.6 2.4-1.7 2.9.8 2 .4 4.9.3.2.6.5.9.7.2 2-1.9 2.2-2.9 3.6 1.4 6.4-3.3 7.1-4.6 11.8l-3.2.9c-.5.4.1 1.3-.6 1.7-.6.1-.5-.8-1-.9h-1.3c-1.5-.3-.1-2-2.2-2-1.2-2.2-2.2-5.2-3.8-6.9-.8-.1-1.1-.9-1.7-1.3.4-.7 1.2 0 1.5-.7-.6-2.1-2.8-1.9-4.2-2.9.8-2.9-.4-5.3-1.8-7.6.5-.8 1.9-1.6.2-2.6-2.4-4.2 1.4-4.5-.8-7.2.7-.8.5-2.1 1.4-2.5 0-.6-.4-.7-.7-.9 0-.5.7-.3.7-.8.1-.6-.6-.5-.8-1 1-.3.7-1.4 1.2-2 .7-1.6 3.4-4.5 1.6-5.9-.1-4.7 5.6-5.6 5.9-10.2z" fill="#050101"/><path d="M351.4 414l-.8-1.7c-8.9-.3-16.7-6.5-23.3-12.4-1-1.7-2.8-2.7-3.6-4.7-.9-1-2.5-1.1-2.7-2.7-3.3-4-5.6-7.2-8.3-11.7-1-1.2-2.1-2.3-2-4.1-1.3-2.3-2.5-4.9-3.4-7.6-3.5-6.1-4.9-13-7.6-19.4-10.4-7.2-22.9 1.2-17 13.5.4 15.2-2.4 32.1-13.4 43.8-2.5 1.3-4.5 3.3-7.3 4.7-4.1-.4-9.9 5.1-13.4.6-3.3 3-6.4 0-9.8-1.2-1.8-.4-2.6-1.4-3.6-2.8-3.6-1.9-7.2-3.1-10.2-5.9-1-1.4-2.6-2.3-4-3.1-1.2-2-3.7 0-4.7-2-.4-1.2-.8-1.6-2.1-1.4-3.3-2.8-7.1-5-9.5-8.8-1-2.9-4.3-4.8-4.9-8.4-1.2-3.7-3.5-7-4.5-10.9-1.1-.7.9-1.5-.2-2.3-1.8-2.6-.8-6.8-1.6-9.9-4.8-6.8-29.5-8.2-39-12.2l-9.9 9.5c-1.4-.8-2.2-2.1-3.4-3.2 4.5-3.4 8.2-11 13.9-11.1l37.3 9.6c1-9.4.4-19.3 4.1-28.2-.9-2.1.9-4.2 1.2-6.4.3-1.7 2.5-2.4 1.8-4.3 2.7-3.5 3.9-9.2 7.9-11.7 1.8-.8 2.4-3 3.7-4 1.5.1 2.2-1.4 3.5-1.7 1.1-.8 1.3-2.9 3.2-2.4 3.4-.9 6-1.7 9.8-2.1 1.9-.6 3.4.5 5.2-.7 2.7 3.1 7.9 3.4 11.5 4.8 3.2 3.4 7.2 5.8 10.7 9 2.5 2.5 3.8 5.8 6.6 7.9.5 2.4 3.2 3.5 3.6 6.1.1.7 1.4 1.3 2.3 2.1 4.4 9.8 8.8 20.1 12.2 30.5 4.9-4.8 12.2-5.7 18.5-3.4 1.1-1.2.3-2.5-.1-3.1-.7-1.1 0-2-.3-3-.4-.9-.5-2 .4-2.8-1.3-11.9 1-27.9 9.5-36.7 1.8-3.6 5.4-5.1 8.2-7.7.8-.2 1.5 1 2.3.1 2.3-2.4 8.5-4.2 11.5-1.4 5.8-4.8 12.2 4 17.9 5.1 3.8.9 5.9 5.1 9.6 6.1 2.6 2.2 4.3.3 6.3 3.6 1.9-.1 3.7 1.8 5.3 2.8 3 1.3 4 4.2 6.5 6.1-.2.4-.4.8-.4 1 4.5 2.4 5 7.7 7.7 11.5.4 2.7 2.6 3.9 2.2 6.9 1.1 1.7 1.4 3.7 1.8 5.7.8 8.4 2.8 16.9 1.6 25.1.2.3-.4 1.2.4 1.7.1 0 .1.4.1.4-1.5 1.9-.8 4.7-1.1 7.1-.8 5.8-1.8 11.6-4.1 16.9.4 1.4-.4 2-1.4 2.8-1 3.8-3.1 7.8-6.2 10.2-1.8.7-1.6 3.6-3.1 3.9-1.9.7-3.9 1.7-4.6 3.7-.1.4-1.1.7-1.7.8-2.2-.3-3.4 1.8-5.4 1.9-3.2.1-6.6.6-9.7 1.6zm12.5-7.3c1.4.3 2.9-1.1 3.8-1.9.4-1.3 1.3.3 1.8-.5 2.7-3 6.7-5.7 8.1-9.6 6.8-10.7 7.8-23.7 8.5-36.2-.8-6.8-.1-13.4-1.9-20.1-2.2-4-1.5-9.6-4.4-12.9-3.6-7.3-8.6-16-16.1-19.4-.4 1.6 1.3 1.2 1.6 2.2-.6 1-.5 2 .3 3 4 9.5-8.5-5.9-10.2-6.5.1-.2.1-.5.2-.7-4.3 0-5.9-5.5-9.8-3.4-1.9-1.6 1.4-4.1-2-4.2-2.2-.1-3.4-2.6-5.8-2.5-.7-.6-1.6-1.3-2.4-1.8-.8.8-.9.9-1.4.6-1.5-1.4-3.3.6-4.9-.1-1.3-1.1-2.9-1-4.5-1.6-1.6 3.7-5.3.4-7.3 3.2-1.4 1.1-2.6 1.5-3 3.2-13.1 8.3-13.4 27.5-12.5 41.9 1 8.6 4.4 16.6 7 24.6-.2 2.1 2.3 2.5 2.3 4.6.1 3.6 4 5.8 3.3 9.2 2.7.8 2.5 4 4.5 5.4 2 1.5 2.3 4.1 4 5.9 1.7 2.7 5 3.1 5.6 6.3 3.1-.6 2 3.8 4.3 4.8 1.6 1 2.6 2.2 4.8 2.1.6 1.3 1.5 2.2 3.1 2.4-.3.3-.4.5-.6.7 3.7 1.9 8.1 2.5 12.2 3.7 1.2.6 1.9-.4 3.2-.1 1 .1 2 .2 2.8-.6 1.8-.7 4.4.9 5.4-1.7zm-120-111.1c-3-1.9-6.5-1.7-9.4-3.6-1.1-.2-2.2 0-3.3-.6-.9-.3-1.7.8-2.8.2-1.2-.3-2.8.4-4.1.4-1.8-.2-3.1 0-4.4 1.5-2.2-.4-3.3 2.3-5.5 2.2-2.6 1.7-4.2 5-7.1 6.6-3.8 6.4-8 13.1-8.6 20.9-4.2 15.7-4.8 36.3 2.2 51.1 2 6.2 9 18.2 15.4 19.5l-2.2-2.2c1.7-1.6-.8-4-1.3-5.8 2.4-1.1 8.1 6.9 9.7 8.9 4 1.5 5.8 7 10.8 5.7.8.7.8 1.1.3 1.9-1.3 2.1 1.3 2.1 2.5 2.5 3.2 2.3 7.3 5.3 11.2 4.4 2.5-1.2 5.4 3.5 7.7.7 1.9-2.5 5.1 2.1 9.4-4.9 3.7-.1 3.9-3.8 6.3-5.5 1.8-.8 1-3.1 2.5-4.2 3.5-4.7 3.8-10.9 5.2-16.5 0-.8.5-1.9.1-2.4-.9-1.1.6-1.4.5-2.2.9-11.3-1.9-22.3-5.1-33.4-.2-2.7-2.6-4.6-2.9-7.2 0-3.6-3.9-5.5-2.7-9.2-2.8-.2-2.1-3.8-3.8-5-3.8-3.2-4-8.5-8.9-10.8-.5-2.7-3.1-2.7-3.5-6.3-2.7-2.8-6.3-3.5-8.7-6.2l.5-.5z"/><path d="M306 129.3l-91.8-28.5 2.4-1.7 2.3.6c1.7.3 3.7 2.2 5.5 1.9 1.5-.3 2 1 3.1 1.2 4 1.1 8.4 1.4 11.9 3.9 17.5 3.6 35.1 10.2 52.4 15.9l12 3.8c.7 1 1.5 1.9 2.2 2.9zm11.3 14.9l-7.9-2.7c-2.1.5-3.7-1.2-5.7-1.2-2.3-.5-4.8-1.6-7-2.7-3.5-.6-6.8-1.9-10-3.2-1.3.1-2.2-.5-3-1.6-.6.1-1.2.3-1.8.4-1.7-.6-3.2-2-5.3-1.9-7.9-3.3-17.1-4.7-25-7.9-9-2.7-18.4-5.3-27.2-8.3-.4-.4-1.4-.2-2-.4-.7-.2-1-.9-2-.7-.6.1-1.5-1.1-2.1-1-1.3.2-2.2-.5-3.1-1.1-.5.1-.9.2-1.3.3-.8-.4-1.3-1.7-2.5-1.1-.2.1-.7 0-.9-.1-.7-.5-1.4-1-2.4-.8-1.1-.8-2.4-1-3.7-1.2.7-.6 1.3-1.3 2-1.9 6.2 2.4 12.6 3.6 18.5 6.6 7.2 1 13.8 4.5 20.9 6.2 9.5 2.3 19.1 4.8 28.2 8.5 7.6 2.2 14.8 5 22.5 7.1 1.3.7 2.7 1.4 4.1 1.5 2.7.6 4.7 2.5 7.6 2.1l7.2 2.3c.6 1 1.3 1.9 1.9 2.8zm25.3 41.7c-2.5-1.2-5.1-2.3-7.7-3.1-4.4-.7-8.5-2.9-12.7-4.2-1-.1-2 0-2.6-1-16.9-3.7-32.9-11.5-49.8-15.3-1.7-1.1-3.6-1.7-5.7-1.8-9.9-3.3-20.8-6.5-30.8-9.4l-24.3-7.7c-5.1-1.1-10-2.9-15-4.3-1.2.1-2-.4-3-1-1.4.3-2.5-.6-3.6-1.1l-5.3-1.5c.4-.6.8-1.2 1.3-1.8l17 5.1c2.7 0 5 2.2 7.5 1.8 1.7.1 3.5 1.5 5.2 2.1 1.6.7 3.5-.2 4.9 1.3 2.8.3 5.2 1.5 7.7 2.5 8.6 2.4 17 6.2 25.9 7.9 2.8-.2 4.9 1.6 7.5 1.9 3.7.7 7.5 1.9 10.7 4 3.9-.1 7.1 2.9 10.9 2.4 9 3.9 18.8 7.3 28.5 9.6 6.9 2.3 13.6 4.4 20.7 6.3 1.1.3 2.5 1.5 3.6 1.4.7-.3 1 .3 1.4.5 2 .8 4 1.5 5.9 2.2.6 1 1.2 2.1 1.8 3.2zm-37.5-38.4c-3.3 2.1-5.5-1.5-8.8-1.5-1.4-.1-2.6-1-4-1.4-1.7-.9-3.5-1.2-5.3-1.5-1.2-1.1-3.2-.5-4.4-1.7-1.7.4-2.9-1.1-4.5-1.1-1.8-1.5-4.4-1-6.3-2.2-1.2-1.1-2.7-.4-4-1.5-1.9-.3-3.7-.9-5.5-1.7-.7-.4-1.3-1.2-2.2-.5-.1.1-.3 0-.5-.1-.9-.3-1.4-1.3-2.8-1-2 0-4.2-1.5-6.3-2-5.5-1.2-10.8-3-16.2-4.6-8.5-2.2-16.5-5.2-24.7-7.8-4-1-7.9-2.1-11.9-3.2.5-.6 1.1-1.2 1.6-1.7 8.3 2.2 16.5 4.1 24.4 7.6 4 1.6 8.6 1.7 12.2 4.3 5.7.2 10.8 3.1 16.2 4.1 7.2.6 13.2 5.1 20.4 6.1 1.4.1 3.2.8 4.3 1.8 4 0 7 2.9 11.1 3.2 5.7 2.3 11.9 3.1 17.2 6.4zm19.4 7.5c-6.4-2-12.9-4-19-6.7.4-.4.7-.8 1-1.1 5.2 1.7 10.6 3 15.9 4.7.8.9 1.5 2 2.1 3.1zm-37.3-45.8l-56.3-17.5 2.3-.8c3.7 1.1 7.3 2.9 11.2 3.2 13.1 4.2 26.8 7.8 39.9 12.5l2.9 2.6zm45.2 58.4c-3-1.1-6.6-1.1-9.3-2.9s-6.4-.1-8.1-3.4c5.6.9 11.3 3.2 16.8 5.3.1.3.4.7.6 1zm-77.3-23.9l-2.7-1.7c2-1.4 3.9.4 5.9.8.5.2 1 .6 1.6.2.2-.1.7 0 .9.2 3.3 2 7.6 2.7 11.3 3.7 3 .8 5.5 2.5 8.7 2.7 1.5 0 2.7 1.1 4 1.7 1.3.5 3 .3 4.2 1.3 1.5 1.1 3.5 1 5.1 1.9 1.3.1 2.9.6 3.2 1.8-3.3-.3-6.4-1.9-9.6-3.1-3 .4-5.8-1.5-8.7-2.2-1.7-1.2-4-.6-5.6-2-1.5-1.2-3.3-.8-4.9-1.4-4.6-1.4-8.3-3.4-13.4-3.9zm-58.6-18.3c-2.2.4-3.9-.6-5.6-1.3-.1 0-.1 0-.2-.1.4-.5.8-.9 1.1-1.4 2.6.8 4.8 1.6 4.7 2.8zm38.4 11.2c-1.6.1-3 .1-4.2-.6-3-1.8-8.8-.3-10.2-4.1 1.4-1.2 3.2.7 4.7 1.1 3.3 1 7 1.3 9.7 3.6zm-15.1-3.4c-3.8-2.3-7.9-2.3-10.9-5.3 2.9.3 6.3 2.1 9.5 2.6 1.4.4 1.4.4 1.4 2.7zm-22.6-8c4.1-.6 7.5 1.9 11.3 2.9l-.9.9c-3.2-1.9-7.3-1.3-10.4-3.8zm110.3 34.4c.1-.3.1-.6.2-1.1 2.1 1.5 4.5 1 6.7 2.2-1 3.3-4.7-.6-6.9-1.1z" fill="#c3d2ac"/></svg>
